<svg width="280" height="112" viewBox="0 0 280 112" fill="none" xmlns="http://www.w3.org/2000/svg">
<g clip-path="url(#clip0_2_18)">
<path d="M0 0H280V112H0V0Z" fill="#F0141E"/>
<path d="M236.947 26.1066V8.95495H188.952L181.05 66.2329L173.244 8.95495H155.935L157.87 24.2497C155.874 20.3297 148.791 8.95495 133.195 8.95495C133.092 8.94823 115.866 8.95495 115.866 8.95495L115.795 92.442L103.182 8.95495L80.5106 8.94823L67.4604 95.4498L67.4677 8.95495H45.7666L37.9462 57.545L30.3279 8.95495H8.62344V102.997H25.7163V57.6682L33.4925 102.997H42.5779L50.2443 57.6682V102.997H83.1936L85.1861 88.5321H98.4514L100.444 102.997L132.796 103.018H132.819V102.997H132.859V72.4746L136.821 71.9012L145.031 103.018H161.766L161.759 102.997H161.806L151.033 66.5353C156.488 62.515 162.654 52.323 161.013 42.5684V42.565C161.034 42.6916 171.185 103.06 171.185 103.06L191.084 102.998L204.681 17.7643V102.998H236.946V86.0866H221.633V64.5226H236.946V47.353H221.633V26.1066H236.947ZM87.1993 73.6232L91.896 33.4141L96.7624 73.6232H87.1993ZM136.876 55.0564C135.563 55.6853 134.197 56 132.859 56.0033V25.7578C132.88 25.7578 132.912 25.7544 132.945 25.7544C134.278 25.7443 144.259 26.1542 144.259 40.7114C144.259 48.3263 140.865 53.1289 136.876 55.0564ZM271.38 86.0709V102.976H239.9V8.94151H256.852V86.0709H271.38Z" fill="white"/>
</g>
<defs>
<clipPath id="clip0_2_18">
<rect width="280" height="112" fill="white"/>
</clipPath>
</defs>
</svg>

